<mxfile host="app.diagrams.net" modified="2021-05-04T14:12:18.605Z" agent="5.0 (Windows NT 10.0; Win64; x64) AppleWebKit/537.36 (KHTML, like Gecko) Chrome/90.0.4430.93 Safari/537.36" etag="w1MUPo9TOr6BH1Pjbtqn" version="14.6.9" type="github" pages="2">
  <diagram id="zaYsaFtJAvkk4-98bPF6" name="Page-1">
    <mxGraphModel dx="2903" dy="2265" grid="1" gridSize="10" guides="1" tooltips="1" connect="1" arrows="1" fold="1" page="1" pageScale="1" pageWidth="827" pageHeight="1169" math="0" shadow="0">
      <root>
        <mxCell id="0" />
        <mxCell id="1" parent="0" />
        <mxCell id="vi7r8pS_lw6DegFknRx_-76" style="edgeStyle=orthogonalEdgeStyle;rounded=0;orthogonalLoop=1;jettySize=auto;html=1;exitX=1;exitY=0.75;exitDx=0;exitDy=0;entryX=0;entryY=0.75;entryDx=0;entryDy=0;startArrow=none;startFill=0;endArrow=none;endFill=0;" edge="1" parent="1" source="1oOB9dHWnE0UJrxzAWDH-4" target="1oOB9dHWnE0UJrxzAWDH-39">
          <mxGeometry relative="1" as="geometry">
            <Array as="points">
              <mxPoint x="495" y="253" />
              <mxPoint x="530" y="253" />
            </Array>
          </mxGeometry>
        </mxCell>
        <mxCell id="1oOB9dHWnE0UJrxzAWDH-4" value="Επιλογή γραμμής" style="rounded=0;whiteSpace=wrap;html=1;" vertex="1" parent="1">
          <mxGeometry x="374.5" y="50" width="120" height="280" as="geometry" />
        </mxCell>
        <mxCell id="1oOB9dHWnE0UJrxzAWDH-10" style="edgeStyle=orthogonalEdgeStyle;rounded=0;orthogonalLoop=1;jettySize=auto;html=1;endArrow=none;endFill=0;startArrow=oval;startFill=0;entryX=0;entryY=0.5;entryDx=0;entryDy=0;" edge="1" parent="1" target="1oOB9dHWnE0UJrxzAWDH-6">
          <mxGeometry relative="1" as="geometry">
            <mxPoint x="134.5" y="130" as="targetPoint" />
            <mxPoint x="134.5" y="80" as="sourcePoint" />
            <Array as="points">
              <mxPoint x="174.5" y="80" />
            </Array>
          </mxGeometry>
        </mxCell>
        <mxCell id="1oOB9dHWnE0UJrxzAWDH-11" style="edgeStyle=orthogonalEdgeStyle;rounded=0;orthogonalLoop=1;jettySize=auto;html=1;exitX=0.5;exitY=1;exitDx=0;exitDy=0;endArrow=none;endFill=0;startArrow=oval;startFill=0;" edge="1" parent="1" source="1oOB9dHWnE0UJrxzAWDH-6">
          <mxGeometry relative="1" as="geometry">
            <mxPoint x="373" y="90" as="targetPoint" />
            <Array as="points">
              <mxPoint x="373.5" y="90" />
            </Array>
          </mxGeometry>
        </mxCell>
        <mxCell id="1oOB9dHWnE0UJrxzAWDH-12" style="edgeStyle=orthogonalEdgeStyle;rounded=0;orthogonalLoop=1;jettySize=auto;html=1;exitX=0.5;exitY=0;exitDx=0;exitDy=0;endArrow=none;endFill=0;entryX=0.007;entryY=0.078;entryDx=0;entryDy=0;entryPerimeter=0;" edge="1" parent="1" source="1oOB9dHWnE0UJrxzAWDH-6" target="1oOB9dHWnE0UJrxzAWDH-4">
          <mxGeometry relative="1" as="geometry">
            <mxPoint x="324.5" y="70" as="targetPoint" />
            <Array as="points">
              <mxPoint x="304.5" y="70" />
              <mxPoint x="304.5" y="72" />
            </Array>
          </mxGeometry>
        </mxCell>
        <mxCell id="1oOB9dHWnE0UJrxzAWDH-6" value="" style="triangle;whiteSpace=wrap;html=1;" vertex="1" parent="1">
          <mxGeometry x="204.5" y="60" width="30" height="40" as="geometry" />
        </mxCell>
        <mxCell id="1oOB9dHWnE0UJrxzAWDH-16" style="edgeStyle=orthogonalEdgeStyle;rounded=0;orthogonalLoop=1;jettySize=auto;html=1;endArrow=none;endFill=0;startArrow=oval;startFill=0;entryX=0;entryY=0.5;entryDx=0;entryDy=0;" edge="1" parent="1" target="1oOB9dHWnE0UJrxzAWDH-17">
          <mxGeometry relative="1" as="geometry">
            <mxPoint x="134.5" y="190" as="targetPoint" />
            <mxPoint x="134.5" y="140" as="sourcePoint" />
            <Array as="points">
              <mxPoint x="174.5" y="140" />
            </Array>
          </mxGeometry>
        </mxCell>
        <mxCell id="1oOB9dHWnE0UJrxzAWDH-26" style="edgeStyle=orthogonalEdgeStyle;rounded=0;orthogonalLoop=1;jettySize=auto;html=1;exitX=0.5;exitY=1;exitDx=0;exitDy=0;entryX=-0.007;entryY=0.355;entryDx=0;entryDy=0;entryPerimeter=0;startArrow=oval;startFill=0;endArrow=none;endFill=0;" edge="1" parent="1" source="1oOB9dHWnE0UJrxzAWDH-17" target="1oOB9dHWnE0UJrxzAWDH-4">
          <mxGeometry relative="1" as="geometry" />
        </mxCell>
        <mxCell id="1oOB9dHWnE0UJrxzAWDH-29" style="edgeStyle=orthogonalEdgeStyle;rounded=0;orthogonalLoop=1;jettySize=auto;html=1;exitX=0.5;exitY=0;exitDx=0;exitDy=0;entryX=-0.02;entryY=0.286;entryDx=0;entryDy=0;entryPerimeter=0;startArrow=none;startFill=0;endArrow=none;endFill=0;" edge="1" parent="1" source="1oOB9dHWnE0UJrxzAWDH-17" target="1oOB9dHWnE0UJrxzAWDH-4">
          <mxGeometry relative="1" as="geometry" />
        </mxCell>
        <mxCell id="1oOB9dHWnE0UJrxzAWDH-17" value="" style="triangle;whiteSpace=wrap;html=1;" vertex="1" parent="1">
          <mxGeometry x="204.5" y="120" width="30" height="40" as="geometry" />
        </mxCell>
        <mxCell id="1oOB9dHWnE0UJrxzAWDH-18" style="edgeStyle=orthogonalEdgeStyle;rounded=0;orthogonalLoop=1;jettySize=auto;html=1;endArrow=none;endFill=0;startArrow=oval;startFill=0;entryX=0;entryY=0.5;entryDx=0;entryDy=0;" edge="1" parent="1" target="1oOB9dHWnE0UJrxzAWDH-19">
          <mxGeometry relative="1" as="geometry">
            <mxPoint x="134.5" y="250" as="targetPoint" />
            <mxPoint x="134.5" y="200" as="sourcePoint" />
            <Array as="points">
              <mxPoint x="174.5" y="200" />
            </Array>
          </mxGeometry>
        </mxCell>
        <mxCell id="1oOB9dHWnE0UJrxzAWDH-27" style="edgeStyle=orthogonalEdgeStyle;rounded=0;orthogonalLoop=1;jettySize=auto;html=1;exitX=0.5;exitY=1;exitDx=0;exitDy=0;entryX=-0.013;entryY=0.572;entryDx=0;entryDy=0;entryPerimeter=0;startArrow=oval;startFill=0;endArrow=none;endFill=0;" edge="1" parent="1" source="1oOB9dHWnE0UJrxzAWDH-19" target="1oOB9dHWnE0UJrxzAWDH-4">
          <mxGeometry relative="1" as="geometry" />
        </mxCell>
        <mxCell id="1oOB9dHWnE0UJrxzAWDH-30" style="edgeStyle=orthogonalEdgeStyle;rounded=0;orthogonalLoop=1;jettySize=auto;html=1;exitX=0.5;exitY=0;exitDx=0;exitDy=0;entryX=0;entryY=0.5;entryDx=0;entryDy=0;startArrow=none;startFill=0;endArrow=none;endFill=0;" edge="1" parent="1" source="1oOB9dHWnE0UJrxzAWDH-19" target="1oOB9dHWnE0UJrxzAWDH-4">
          <mxGeometry relative="1" as="geometry" />
        </mxCell>
        <mxCell id="1oOB9dHWnE0UJrxzAWDH-19" value="" style="triangle;whiteSpace=wrap;html=1;" vertex="1" parent="1">
          <mxGeometry x="204.5" y="180" width="30" height="40" as="geometry" />
        </mxCell>
        <mxCell id="1oOB9dHWnE0UJrxzAWDH-22" style="edgeStyle=orthogonalEdgeStyle;rounded=0;orthogonalLoop=1;jettySize=auto;html=1;endArrow=none;endFill=0;startArrow=oval;startFill=0;entryX=0;entryY=0.5;entryDx=0;entryDy=0;" edge="1" parent="1" target="1oOB9dHWnE0UJrxzAWDH-23">
          <mxGeometry relative="1" as="geometry">
            <mxPoint x="134.5" y="310" as="targetPoint" />
            <mxPoint x="134.5" y="260" as="sourcePoint" />
            <Array as="points">
              <mxPoint x="174.5" y="260" />
            </Array>
          </mxGeometry>
        </mxCell>
        <mxCell id="1oOB9dHWnE0UJrxzAWDH-28" style="edgeStyle=orthogonalEdgeStyle;rounded=0;orthogonalLoop=1;jettySize=auto;html=1;exitX=0.5;exitY=1;exitDx=0;exitDy=0;entryX=0;entryY=0.786;entryDx=0;entryDy=0;entryPerimeter=0;startArrow=oval;startFill=0;endArrow=none;endFill=0;" edge="1" parent="1" source="1oOB9dHWnE0UJrxzAWDH-23" target="1oOB9dHWnE0UJrxzAWDH-4">
          <mxGeometry relative="1" as="geometry" />
        </mxCell>
        <mxCell id="1oOB9dHWnE0UJrxzAWDH-31" style="edgeStyle=orthogonalEdgeStyle;rounded=0;orthogonalLoop=1;jettySize=auto;html=1;exitX=0.5;exitY=0;exitDx=0;exitDy=0;entryX=-0.013;entryY=0.712;entryDx=0;entryDy=0;entryPerimeter=0;startArrow=none;startFill=0;endArrow=none;endFill=0;" edge="1" parent="1" source="1oOB9dHWnE0UJrxzAWDH-23" target="1oOB9dHWnE0UJrxzAWDH-4">
          <mxGeometry relative="1" as="geometry" />
        </mxCell>
        <mxCell id="1oOB9dHWnE0UJrxzAWDH-23" value="" style="triangle;whiteSpace=wrap;html=1;" vertex="1" parent="1">
          <mxGeometry x="204.5" y="240" width="30" height="40" as="geometry" />
        </mxCell>
        <mxCell id="1oOB9dHWnE0UJrxzAWDH-32" value="" style="endArrow=none;html=1;exitX=1.013;exitY=0.086;exitDx=0;exitDy=0;exitPerimeter=0;" edge="1" parent="1" source="1oOB9dHWnE0UJrxzAWDH-4">
          <mxGeometry width="50" height="50" relative="1" as="geometry">
            <mxPoint x="504.5" y="250" as="sourcePoint" />
            <mxPoint x="564.5" y="74" as="targetPoint" />
          </mxGeometry>
        </mxCell>
        <mxCell id="1oOB9dHWnE0UJrxzAWDH-33" value="" style="endArrow=none;html=1;exitX=1.02;exitY=0.118;exitDx=0;exitDy=0;exitPerimeter=0;" edge="1" parent="1" source="1oOB9dHWnE0UJrxzAWDH-4">
          <mxGeometry width="50" height="50" relative="1" as="geometry">
            <mxPoint x="506.05999999999995" y="84.08000000000004" as="sourcePoint" />
            <mxPoint x="564.5" y="84" as="targetPoint" />
            <Array as="points" />
          </mxGeometry>
        </mxCell>
        <mxCell id="1oOB9dHWnE0UJrxzAWDH-34" style="edgeStyle=orthogonalEdgeStyle;rounded=0;orthogonalLoop=1;jettySize=auto;html=1;endArrow=none;endFill=0;startArrow=oval;startFill=0;entryX=0;entryY=0.5;entryDx=0;entryDy=0;" edge="1" parent="1" target="1oOB9dHWnE0UJrxzAWDH-35">
          <mxGeometry relative="1" as="geometry">
            <mxPoint x="134.5" y="360" as="targetPoint" />
            <mxPoint x="134.5" y="310" as="sourcePoint" />
            <Array as="points">
              <mxPoint x="174.5" y="310" />
            </Array>
          </mxGeometry>
        </mxCell>
        <mxCell id="1oOB9dHWnE0UJrxzAWDH-36" style="edgeStyle=orthogonalEdgeStyle;rounded=0;orthogonalLoop=1;jettySize=auto;html=1;exitX=0.5;exitY=0;exitDx=0;exitDy=0;entryX=-0.013;entryY=0.895;entryDx=0;entryDy=0;entryPerimeter=0;startArrow=none;startFill=0;endArrow=none;endFill=0;" edge="1" parent="1" source="1oOB9dHWnE0UJrxzAWDH-35" target="1oOB9dHWnE0UJrxzAWDH-4">
          <mxGeometry relative="1" as="geometry" />
        </mxCell>
        <mxCell id="1oOB9dHWnE0UJrxzAWDH-37" style="edgeStyle=orthogonalEdgeStyle;rounded=0;orthogonalLoop=1;jettySize=auto;html=1;exitX=0.5;exitY=1;exitDx=0;exitDy=0;entryX=-0.027;entryY=0.961;entryDx=0;entryDy=0;entryPerimeter=0;startArrow=oval;startFill=0;endArrow=none;endFill=0;" edge="1" parent="1" source="1oOB9dHWnE0UJrxzAWDH-35" target="1oOB9dHWnE0UJrxzAWDH-4">
          <mxGeometry relative="1" as="geometry" />
        </mxCell>
        <mxCell id="1oOB9dHWnE0UJrxzAWDH-35" value="" style="triangle;whiteSpace=wrap;html=1;" vertex="1" parent="1">
          <mxGeometry x="204.5" y="290" width="30" height="40" as="geometry" />
        </mxCell>
        <mxCell id="1oOB9dHWnE0UJrxzAWDH-39" value="" style="rounded=0;whiteSpace=wrap;html=1;" vertex="1" parent="1">
          <mxGeometry x="564.5" y="50" width="620" height="270" as="geometry" />
        </mxCell>
        <mxCell id="1oOB9dHWnE0UJrxzAWDH-40" value="" style="endArrow=none;html=1;entryX=0.25;entryY=0;entryDx=0;entryDy=0;exitX=0.25;exitY=1;exitDx=0;exitDy=0;" edge="1" parent="1" source="1oOB9dHWnE0UJrxzAWDH-39" target="1oOB9dHWnE0UJrxzAWDH-39">
          <mxGeometry width="50" height="50" relative="1" as="geometry">
            <mxPoint x="664.5" y="250" as="sourcePoint" />
            <mxPoint x="714.5" y="200" as="targetPoint" />
          </mxGeometry>
        </mxCell>
        <mxCell id="1oOB9dHWnE0UJrxzAWDH-42" value="" style="endArrow=none;html=1;entryX=0.5;entryY=1;entryDx=0;entryDy=0;exitX=0.5;exitY=0;exitDx=0;exitDy=0;" edge="1" parent="1" source="1oOB9dHWnE0UJrxzAWDH-39" target="1oOB9dHWnE0UJrxzAWDH-39">
          <mxGeometry width="50" height="50" relative="1" as="geometry">
            <mxPoint x="664.5" y="250" as="sourcePoint" />
            <mxPoint x="714.5" y="200" as="targetPoint" />
          </mxGeometry>
        </mxCell>
        <mxCell id="1oOB9dHWnE0UJrxzAWDH-43" value="" style="endArrow=none;html=1;entryX=0.75;entryY=0;entryDx=0;entryDy=0;exitX=0.75;exitY=1;exitDx=0;exitDy=0;" edge="1" parent="1" source="1oOB9dHWnE0UJrxzAWDH-39" target="1oOB9dHWnE0UJrxzAWDH-39">
          <mxGeometry width="50" height="50" relative="1" as="geometry">
            <mxPoint x="664.5" y="250" as="sourcePoint" />
            <mxPoint x="714.5" y="200" as="targetPoint" />
          </mxGeometry>
        </mxCell>
        <mxCell id="1oOB9dHWnE0UJrxzAWDH-99" style="edgeStyle=orthogonalEdgeStyle;rounded=0;orthogonalLoop=1;jettySize=auto;html=1;exitX=1;exitY=0.75;exitDx=0;exitDy=0;entryX=0;entryY=0.75;entryDx=0;entryDy=0;startArrow=none;startFill=0;endArrow=none;endFill=0;" edge="1" parent="1" source="1oOB9dHWnE0UJrxzAWDH-44" target="1oOB9dHWnE0UJrxzAWDH-45">
          <mxGeometry relative="1" as="geometry" />
        </mxCell>
        <mxCell id="vi7r8pS_lw6DegFknRx_-17" style="edgeStyle=orthogonalEdgeStyle;rounded=0;orthogonalLoop=1;jettySize=auto;html=1;exitX=0.5;exitY=1;exitDx=0;exitDy=0;startArrow=none;startFill=0;endArrow=oval;endFill=1;" edge="1" parent="1" source="1oOB9dHWnE0UJrxzAWDH-44">
          <mxGeometry relative="1" as="geometry">
            <mxPoint x="635" y="490" as="targetPoint" />
          </mxGeometry>
        </mxCell>
        <mxCell id="1oOB9dHWnE0UJrxzAWDH-44" value="" style="rounded=0;whiteSpace=wrap;html=1;" vertex="1" parent="1">
          <mxGeometry x="574.5" y="350" width="120" height="60" as="geometry" />
        </mxCell>
        <mxCell id="1oOB9dHWnE0UJrxzAWDH-95" style="edgeStyle=orthogonalEdgeStyle;rounded=0;orthogonalLoop=1;jettySize=auto;html=1;exitX=1;exitY=0.75;exitDx=0;exitDy=0;entryX=0;entryY=0.75;entryDx=0;entryDy=0;startArrow=none;startFill=0;endArrow=none;endFill=0;" edge="1" parent="1" source="1oOB9dHWnE0UJrxzAWDH-45" target="1oOB9dHWnE0UJrxzAWDH-46">
          <mxGeometry relative="1" as="geometry" />
        </mxCell>
        <mxCell id="1oOB9dHWnE0UJrxzAWDH-97" style="edgeStyle=orthogonalEdgeStyle;rounded=0;orthogonalLoop=1;jettySize=auto;html=1;exitX=0;exitY=0.25;exitDx=0;exitDy=0;entryX=1;entryY=0.25;entryDx=0;entryDy=0;startArrow=none;startFill=0;endArrow=none;endFill=0;" edge="1" parent="1" source="1oOB9dHWnE0UJrxzAWDH-45" target="1oOB9dHWnE0UJrxzAWDH-44">
          <mxGeometry relative="1" as="geometry" />
        </mxCell>
        <mxCell id="1oOB9dHWnE0UJrxzAWDH-98" style="edgeStyle=orthogonalEdgeStyle;rounded=0;orthogonalLoop=1;jettySize=auto;html=1;exitX=0;exitY=0.5;exitDx=0;exitDy=0;entryX=1;entryY=0.5;entryDx=0;entryDy=0;startArrow=none;startFill=0;endArrow=none;endFill=0;" edge="1" parent="1" source="1oOB9dHWnE0UJrxzAWDH-45" target="1oOB9dHWnE0UJrxzAWDH-44">
          <mxGeometry relative="1" as="geometry" />
        </mxCell>
        <mxCell id="vi7r8pS_lw6DegFknRx_-18" style="edgeStyle=orthogonalEdgeStyle;rounded=0;orthogonalLoop=1;jettySize=auto;html=1;exitX=0.5;exitY=1;exitDx=0;exitDy=0;startArrow=none;startFill=0;endArrow=oval;endFill=1;" edge="1" parent="1" source="1oOB9dHWnE0UJrxzAWDH-45">
          <mxGeometry relative="1" as="geometry">
            <mxPoint x="795" y="550" as="targetPoint" />
          </mxGeometry>
        </mxCell>
        <mxCell id="1oOB9dHWnE0UJrxzAWDH-45" value="" style="rounded=0;whiteSpace=wrap;html=1;" vertex="1" parent="1">
          <mxGeometry x="734.5" y="350" width="120" height="60" as="geometry" />
        </mxCell>
        <mxCell id="1oOB9dHWnE0UJrxzAWDH-93" style="edgeStyle=orthogonalEdgeStyle;rounded=0;orthogonalLoop=1;jettySize=auto;html=1;exitX=1;exitY=0.75;exitDx=0;exitDy=0;entryX=0;entryY=0.75;entryDx=0;entryDy=0;startArrow=none;startFill=0;endArrow=none;endFill=0;" edge="1" parent="1" source="1oOB9dHWnE0UJrxzAWDH-46" target="1oOB9dHWnE0UJrxzAWDH-47">
          <mxGeometry relative="1" as="geometry" />
        </mxCell>
        <mxCell id="1oOB9dHWnE0UJrxzAWDH-94" style="edgeStyle=orthogonalEdgeStyle;rounded=0;orthogonalLoop=1;jettySize=auto;html=1;exitX=0;exitY=0.25;exitDx=0;exitDy=0;entryX=1;entryY=0.25;entryDx=0;entryDy=0;startArrow=none;startFill=0;endArrow=none;endFill=0;" edge="1" parent="1" source="1oOB9dHWnE0UJrxzAWDH-46" target="1oOB9dHWnE0UJrxzAWDH-45">
          <mxGeometry relative="1" as="geometry" />
        </mxCell>
        <mxCell id="1oOB9dHWnE0UJrxzAWDH-96" style="edgeStyle=orthogonalEdgeStyle;rounded=0;orthogonalLoop=1;jettySize=auto;html=1;exitX=0;exitY=0.5;exitDx=0;exitDy=0;entryX=1;entryY=0.5;entryDx=0;entryDy=0;startArrow=none;startFill=0;endArrow=none;endFill=0;" edge="1" parent="1" source="1oOB9dHWnE0UJrxzAWDH-46" target="1oOB9dHWnE0UJrxzAWDH-45">
          <mxGeometry relative="1" as="geometry" />
        </mxCell>
        <mxCell id="vi7r8pS_lw6DegFknRx_-19" style="edgeStyle=orthogonalEdgeStyle;rounded=0;orthogonalLoop=1;jettySize=auto;html=1;exitX=0.5;exitY=1;exitDx=0;exitDy=0;startArrow=none;startFill=0;endArrow=oval;endFill=1;" edge="1" parent="1" source="1oOB9dHWnE0UJrxzAWDH-46">
          <mxGeometry relative="1" as="geometry">
            <mxPoint x="955" y="610" as="targetPoint" />
          </mxGeometry>
        </mxCell>
        <mxCell id="1oOB9dHWnE0UJrxzAWDH-46" value="" style="rounded=0;whiteSpace=wrap;html=1;" vertex="1" parent="1">
          <mxGeometry x="894.5" y="350" width="120" height="60" as="geometry" />
        </mxCell>
        <mxCell id="1oOB9dHWnE0UJrxzAWDH-84" value="" style="edgeStyle=orthogonalEdgeStyle;rounded=0;orthogonalLoop=1;jettySize=auto;html=1;startArrow=none;startFill=0;endArrow=oval;endFill=0;" edge="1" parent="1" source="1oOB9dHWnE0UJrxzAWDH-47">
          <mxGeometry relative="1" as="geometry">
            <mxPoint x="1304.5" y="380" as="targetPoint" />
          </mxGeometry>
        </mxCell>
        <mxCell id="1oOB9dHWnE0UJrxzAWDH-91" value="" style="edgeStyle=orthogonalEdgeStyle;rounded=0;orthogonalLoop=1;jettySize=auto;html=1;startArrow=none;startFill=0;endArrow=none;endFill=0;" edge="1" parent="1" source="1oOB9dHWnE0UJrxzAWDH-47">
          <mxGeometry relative="1" as="geometry">
            <mxPoint x="1014.5" y="380" as="targetPoint" />
          </mxGeometry>
        </mxCell>
        <mxCell id="1oOB9dHWnE0UJrxzAWDH-92" style="edgeStyle=orthogonalEdgeStyle;rounded=0;orthogonalLoop=1;jettySize=auto;html=1;exitX=0;exitY=0.25;exitDx=0;exitDy=0;entryX=1;entryY=0.25;entryDx=0;entryDy=0;startArrow=none;startFill=0;endArrow=none;endFill=0;" edge="1" parent="1" source="1oOB9dHWnE0UJrxzAWDH-47" target="1oOB9dHWnE0UJrxzAWDH-46">
          <mxGeometry relative="1" as="geometry" />
        </mxCell>
        <mxCell id="vi7r8pS_lw6DegFknRx_-20" style="edgeStyle=orthogonalEdgeStyle;rounded=0;orthogonalLoop=1;jettySize=auto;html=1;exitX=0.5;exitY=1;exitDx=0;exitDy=0;startArrow=none;startFill=0;endArrow=oval;endFill=1;" edge="1" parent="1" source="1oOB9dHWnE0UJrxzAWDH-47">
          <mxGeometry relative="1" as="geometry">
            <mxPoint x="1105" y="670" as="targetPoint" />
          </mxGeometry>
        </mxCell>
        <mxCell id="1oOB9dHWnE0UJrxzAWDH-47" value="" style="rounded=0;whiteSpace=wrap;html=1;" vertex="1" parent="1">
          <mxGeometry x="1044.5" y="350" width="120" height="60" as="geometry" />
        </mxCell>
        <mxCell id="1oOB9dHWnE0UJrxzAWDH-48" value="8 σε 1" style="text;html=1;strokeColor=none;fillColor=none;align=center;verticalAlign=middle;whiteSpace=wrap;rounded=0;" vertex="1" parent="1">
          <mxGeometry x="614.5" y="370" width="40" height="20" as="geometry" />
        </mxCell>
        <mxCell id="1oOB9dHWnE0UJrxzAWDH-49" value="8 σε 1" style="text;html=1;strokeColor=none;fillColor=none;align=center;verticalAlign=middle;whiteSpace=wrap;rounded=0;" vertex="1" parent="1">
          <mxGeometry x="774.5" y="370" width="40" height="20" as="geometry" />
        </mxCell>
        <mxCell id="1oOB9dHWnE0UJrxzAWDH-50" value="8 σε 1" style="text;html=1;strokeColor=none;fillColor=none;align=center;verticalAlign=middle;whiteSpace=wrap;rounded=0;" vertex="1" parent="1">
          <mxGeometry x="934.5" y="370" width="40" height="20" as="geometry" />
        </mxCell>
        <mxCell id="1oOB9dHWnE0UJrxzAWDH-51" value="8 σε 1" style="text;html=1;strokeColor=none;fillColor=none;align=center;verticalAlign=middle;whiteSpace=wrap;rounded=0;" vertex="1" parent="1">
          <mxGeometry x="1084.5" y="370" width="40" height="20" as="geometry" />
        </mxCell>
        <mxCell id="1oOB9dHWnE0UJrxzAWDH-52" value="32x8" style="text;html=1;strokeColor=none;fillColor=none;align=center;verticalAlign=middle;whiteSpace=wrap;rounded=0;" vertex="1" parent="1">
          <mxGeometry x="624.5" y="175" width="40" height="20" as="geometry" />
        </mxCell>
        <mxCell id="1oOB9dHWnE0UJrxzAWDH-53" value="32x8" style="text;html=1;strokeColor=none;fillColor=none;align=center;verticalAlign=middle;whiteSpace=wrap;rounded=0;" vertex="1" parent="1">
          <mxGeometry x="774.5" y="180" width="40" height="20" as="geometry" />
        </mxCell>
        <mxCell id="1oOB9dHWnE0UJrxzAWDH-54" value="32x8" style="text;html=1;strokeColor=none;fillColor=none;align=center;verticalAlign=middle;whiteSpace=wrap;rounded=0;" vertex="1" parent="1">
          <mxGeometry x="934.5" y="175" width="40" height="20" as="geometry" />
        </mxCell>
        <mxCell id="1oOB9dHWnE0UJrxzAWDH-55" value="32x8" style="text;html=1;strokeColor=none;fillColor=none;align=center;verticalAlign=middle;whiteSpace=wrap;rounded=0;" vertex="1" parent="1">
          <mxGeometry x="1084.5" y="175" width="40" height="20" as="geometry" />
        </mxCell>
        <mxCell id="1oOB9dHWnE0UJrxzAWDH-57" value="(32)" style="text;html=1;strokeColor=none;fillColor=none;align=center;verticalAlign=middle;whiteSpace=wrap;rounded=0;" vertex="1" parent="1">
          <mxGeometry x="504.5" y="180" width="40" height="20" as="geometry" />
        </mxCell>
        <mxCell id="1oOB9dHWnE0UJrxzAWDH-58" value="" style="endArrow=none;html=1;exitX=0.5;exitY=0;exitDx=0;exitDy=0;" edge="1" parent="1" source="1oOB9dHWnE0UJrxzAWDH-44">
          <mxGeometry width="50" height="50" relative="1" as="geometry">
            <mxPoint x="664.5" y="250" as="sourcePoint" />
            <mxPoint x="634.5" y="321" as="targetPoint" />
          </mxGeometry>
        </mxCell>
        <mxCell id="1oOB9dHWnE0UJrxzAWDH-62" value="" style="endArrow=none;html=1;entryX=0.064;entryY=0.999;entryDx=0;entryDy=0;entryPerimeter=0;exitX=0.25;exitY=0;exitDx=0;exitDy=0;" edge="1" parent="1" source="1oOB9dHWnE0UJrxzAWDH-44" target="1oOB9dHWnE0UJrxzAWDH-39">
          <mxGeometry width="50" height="50" relative="1" as="geometry">
            <mxPoint x="615.5" y="347" as="sourcePoint" />
            <mxPoint x="654.5" y="341" as="targetPoint" />
          </mxGeometry>
        </mxCell>
        <mxCell id="1oOB9dHWnE0UJrxzAWDH-63" value="" style="endArrow=none;html=1;entryX=0.174;entryY=0.996;entryDx=0;entryDy=0;entryPerimeter=0;" edge="1" parent="1" target="1oOB9dHWnE0UJrxzAWDH-39">
          <mxGeometry width="50" height="50" relative="1" as="geometry">
            <mxPoint x="672.5" y="350" as="sourcePoint" />
            <mxPoint x="664.5" y="351" as="targetPoint" />
          </mxGeometry>
        </mxCell>
        <mxCell id="1oOB9dHWnE0UJrxzAWDH-69" value="" style="endArrow=none;html=1;exitX=0.25;exitY=0;exitDx=0;exitDy=0;entryX=0.322;entryY=1.008;entryDx=0;entryDy=0;entryPerimeter=0;" edge="1" parent="1" source="1oOB9dHWnE0UJrxzAWDH-45" target="1oOB9dHWnE0UJrxzAWDH-39">
          <mxGeometry width="50" height="50" relative="1" as="geometry">
            <mxPoint x="664.5" y="250" as="sourcePoint" />
            <mxPoint x="714.5" y="200" as="targetPoint" />
          </mxGeometry>
        </mxCell>
        <mxCell id="1oOB9dHWnE0UJrxzAWDH-75" value="" style="endArrow=none;html=1;exitX=0.5;exitY=0;exitDx=0;exitDy=0;" edge="1" parent="1" source="1oOB9dHWnE0UJrxzAWDH-45">
          <mxGeometry width="50" height="50" relative="1" as="geometry">
            <mxPoint x="774.5" y="360" as="sourcePoint" />
            <mxPoint x="792.5" y="321" as="targetPoint" />
          </mxGeometry>
        </mxCell>
        <mxCell id="1oOB9dHWnE0UJrxzAWDH-76" value="" style="endArrow=none;html=1;exitX=0.75;exitY=0;exitDx=0;exitDy=0;entryX=0.419;entryY=1.005;entryDx=0;entryDy=0;entryPerimeter=0;" edge="1" parent="1" source="1oOB9dHWnE0UJrxzAWDH-45" target="1oOB9dHWnE0UJrxzAWDH-39">
          <mxGeometry width="50" height="50" relative="1" as="geometry">
            <mxPoint x="784.5" y="370" as="sourcePoint" />
            <mxPoint x="784.1400000000001" y="342.1600000000001" as="targetPoint" />
          </mxGeometry>
        </mxCell>
        <mxCell id="1oOB9dHWnE0UJrxzAWDH-77" value="" style="endArrow=none;html=1;entryX=0.579;entryY=1.008;entryDx=0;entryDy=0;entryPerimeter=0;exitX=0.25;exitY=0;exitDx=0;exitDy=0;" edge="1" parent="1" source="1oOB9dHWnE0UJrxzAWDH-46" target="1oOB9dHWnE0UJrxzAWDH-39">
          <mxGeometry width="50" height="50" relative="1" as="geometry">
            <mxPoint x="794.5" y="380" as="sourcePoint" />
            <mxPoint x="794.1400000000001" y="352.1600000000001" as="targetPoint" />
          </mxGeometry>
        </mxCell>
        <mxCell id="1oOB9dHWnE0UJrxzAWDH-78" value="" style="endArrow=none;html=1;exitX=0.5;exitY=0;exitDx=0;exitDy=0;entryX=0.63;entryY=0.996;entryDx=0;entryDy=0;entryPerimeter=0;" edge="1" parent="1" source="1oOB9dHWnE0UJrxzAWDH-46" target="1oOB9dHWnE0UJrxzAWDH-39">
          <mxGeometry width="50" height="50" relative="1" as="geometry">
            <mxPoint x="804.5" y="390" as="sourcePoint" />
            <mxPoint x="804.1400000000001" y="362.1600000000001" as="targetPoint" />
          </mxGeometry>
        </mxCell>
        <mxCell id="1oOB9dHWnE0UJrxzAWDH-79" value="" style="endArrow=none;html=1;exitX=0.75;exitY=0;exitDx=0;exitDy=0;entryX=0.678;entryY=0.999;entryDx=0;entryDy=0;entryPerimeter=0;" edge="1" parent="1" source="1oOB9dHWnE0UJrxzAWDH-46" target="1oOB9dHWnE0UJrxzAWDH-39">
          <mxGeometry width="50" height="50" relative="1" as="geometry">
            <mxPoint x="814.5" y="400" as="sourcePoint" />
            <mxPoint x="814.1400000000001" y="372.1600000000001" as="targetPoint" />
          </mxGeometry>
        </mxCell>
        <mxCell id="1oOB9dHWnE0UJrxzAWDH-80" value="" style="endArrow=none;html=1;exitX=0.25;exitY=0;exitDx=0;exitDy=0;entryX=0.824;entryY=0.999;entryDx=0;entryDy=0;entryPerimeter=0;" edge="1" parent="1" source="1oOB9dHWnE0UJrxzAWDH-47" target="1oOB9dHWnE0UJrxzAWDH-39">
          <mxGeometry width="50" height="50" relative="1" as="geometry">
            <mxPoint x="824.5" y="410" as="sourcePoint" />
            <mxPoint x="824.1400000000001" y="382.1600000000001" as="targetPoint" />
          </mxGeometry>
        </mxCell>
        <mxCell id="1oOB9dHWnE0UJrxzAWDH-81" value="" style="endArrow=none;html=1;exitX=0.5;exitY=0;exitDx=0;exitDy=0;entryX=0.873;entryY=0.996;entryDx=0;entryDy=0;entryPerimeter=0;" edge="1" parent="1" source="1oOB9dHWnE0UJrxzAWDH-47" target="1oOB9dHWnE0UJrxzAWDH-39">
          <mxGeometry width="50" height="50" relative="1" as="geometry">
            <mxPoint x="834.5" y="420" as="sourcePoint" />
            <mxPoint x="834.1400000000001" y="392.1600000000001" as="targetPoint" />
          </mxGeometry>
        </mxCell>
        <mxCell id="1oOB9dHWnE0UJrxzAWDH-82" value="" style="endArrow=none;html=1;exitX=0.75;exitY=0;exitDx=0;exitDy=0;entryX=0.917;entryY=0.999;entryDx=0;entryDy=0;entryPerimeter=0;" edge="1" parent="1" source="1oOB9dHWnE0UJrxzAWDH-47" target="1oOB9dHWnE0UJrxzAWDH-39">
          <mxGeometry width="50" height="50" relative="1" as="geometry">
            <mxPoint x="844.5" y="430" as="sourcePoint" />
            <mxPoint x="844.1400000000001" y="402.1600000000001" as="targetPoint" />
          </mxGeometry>
        </mxCell>
        <mxCell id="1oOB9dHWnE0UJrxzAWDH-90" value="" style="edgeStyle=orthogonalEdgeStyle;rounded=0;orthogonalLoop=1;jettySize=auto;html=1;startArrow=oval;startFill=0;endArrow=none;endFill=0;entryX=1;entryY=0.75;entryDx=0;entryDy=0;" edge="1" parent="1" target="1oOB9dHWnE0UJrxzAWDH-47">
          <mxGeometry relative="1" as="geometry">
            <mxPoint x="1325.5" y="420" as="sourcePoint" />
            <mxPoint x="1194.5" y="400" as="targetPoint" />
            <Array as="points">
              <mxPoint x="1314.5" y="395" />
            </Array>
          </mxGeometry>
        </mxCell>
        <mxCell id="1oOB9dHWnE0UJrxzAWDH-88" value="" style="edgeStyle=orthogonalEdgeStyle;rounded=0;orthogonalLoop=1;jettySize=auto;html=1;startArrow=oval;startFill=0;endArrow=none;endFill=0;entryX=1;entryY=0.25;entryDx=0;entryDy=0;exitX=0.53;exitY=0.425;exitDx=0;exitDy=0;exitPerimeter=0;" edge="1" parent="1" target="1oOB9dHWnE0UJrxzAWDH-47">
          <mxGeometry relative="1" as="geometry">
            <mxPoint x="1314.5" y="360" as="sourcePoint" />
            <mxPoint x="1244.5" y="370" as="targetPoint" />
            <Array as="points">
              <mxPoint x="1304.5" y="365" />
            </Array>
          </mxGeometry>
        </mxCell>
        <mxCell id="1oOB9dHWnE0UJrxzAWDH-100" style="edgeStyle=orthogonalEdgeStyle;rounded=0;orthogonalLoop=1;jettySize=auto;html=1;endArrow=none;endFill=0;startArrow=oval;startFill=0;entryX=0;entryY=0.5;entryDx=0;entryDy=0;" edge="1" parent="1" target="1oOB9dHWnE0UJrxzAWDH-101">
          <mxGeometry relative="1" as="geometry">
            <mxPoint x="204.5" y="540" as="targetPoint" />
            <mxPoint x="140" y="490" as="sourcePoint" />
            <Array as="points">
              <mxPoint x="234.5" y="490" />
              <mxPoint x="234.5" y="490" />
            </Array>
          </mxGeometry>
        </mxCell>
        <mxCell id="1oOB9dHWnE0UJrxzAWDH-114" style="edgeStyle=orthogonalEdgeStyle;rounded=0;orthogonalLoop=1;jettySize=auto;html=1;exitX=0.5;exitY=1;exitDx=0;exitDy=0;startArrow=none;startFill=0;endArrow=none;endFill=0;" edge="1" parent="1" source="1oOB9dHWnE0UJrxzAWDH-101">
          <mxGeometry relative="1" as="geometry">
            <mxPoint x="254.5" y="520" as="targetPoint" />
            <Array as="points">
              <mxPoint x="289.5" y="510" />
              <mxPoint x="289.5" y="510" />
            </Array>
          </mxGeometry>
        </mxCell>
        <mxCell id="vi7r8pS_lw6DegFknRx_-13" style="edgeStyle=orthogonalEdgeStyle;rounded=0;orthogonalLoop=1;jettySize=auto;html=1;exitX=1;exitY=0.5;exitDx=0;exitDy=0;startArrow=none;startFill=0;endArrow=none;endFill=0;" edge="1" parent="1" source="1oOB9dHWnE0UJrxzAWDH-101">
          <mxGeometry relative="1" as="geometry">
            <mxPoint x="1360" y="940" as="targetPoint" />
            <Array as="points">
              <mxPoint x="1360" y="490" />
              <mxPoint x="1360" y="940" />
            </Array>
          </mxGeometry>
        </mxCell>
        <mxCell id="1oOB9dHWnE0UJrxzAWDH-101" value="" style="triangle;whiteSpace=wrap;html=1;" vertex="1" parent="1">
          <mxGeometry x="274.5" y="470" width="30" height="40" as="geometry" />
        </mxCell>
        <mxCell id="1oOB9dHWnE0UJrxzAWDH-102" style="edgeStyle=orthogonalEdgeStyle;rounded=0;orthogonalLoop=1;jettySize=auto;html=1;endArrow=none;endFill=0;startArrow=oval;startFill=0;entryX=0;entryY=0.5;entryDx=0;entryDy=0;" edge="1" parent="1" target="1oOB9dHWnE0UJrxzAWDH-103">
          <mxGeometry relative="1" as="geometry">
            <mxPoint x="204.5" y="600" as="targetPoint" />
            <mxPoint x="130" y="550" as="sourcePoint" />
            <Array as="points">
              <mxPoint x="244.5" y="550" />
            </Array>
          </mxGeometry>
        </mxCell>
        <mxCell id="1oOB9dHWnE0UJrxzAWDH-115" style="edgeStyle=orthogonalEdgeStyle;rounded=0;orthogonalLoop=1;jettySize=auto;html=1;exitX=0.5;exitY=1;exitDx=0;exitDy=0;startArrow=none;startFill=0;endArrow=oval;endFill=1;" edge="1" parent="1" source="1oOB9dHWnE0UJrxzAWDH-103">
          <mxGeometry relative="1" as="geometry">
            <mxPoint x="170" y="590" as="targetPoint" />
            <Array as="points">
              <mxPoint x="290" y="580" />
              <mxPoint x="290" y="590" />
            </Array>
          </mxGeometry>
        </mxCell>
        <mxCell id="vi7r8pS_lw6DegFknRx_-14" style="edgeStyle=orthogonalEdgeStyle;rounded=0;orthogonalLoop=1;jettySize=auto;html=1;exitX=1;exitY=0.5;exitDx=0;exitDy=0;startArrow=none;startFill=0;endArrow=none;endFill=0;" edge="1" parent="1" source="1oOB9dHWnE0UJrxzAWDH-103">
          <mxGeometry relative="1" as="geometry">
            <mxPoint x="1330" y="870" as="targetPoint" />
          </mxGeometry>
        </mxCell>
        <mxCell id="1oOB9dHWnE0UJrxzAWDH-103" value="" style="triangle;whiteSpace=wrap;html=1;" vertex="1" parent="1">
          <mxGeometry x="274.5" y="530" width="30" height="40" as="geometry" />
        </mxCell>
        <mxCell id="1oOB9dHWnE0UJrxzAWDH-104" style="edgeStyle=orthogonalEdgeStyle;rounded=0;orthogonalLoop=1;jettySize=auto;html=1;endArrow=none;endFill=0;startArrow=oval;startFill=0;entryX=0;entryY=0.5;entryDx=0;entryDy=0;" edge="1" parent="1" target="1oOB9dHWnE0UJrxzAWDH-105">
          <mxGeometry relative="1" as="geometry">
            <mxPoint x="204.5" y="660" as="targetPoint" />
            <mxPoint x="130" y="610" as="sourcePoint" />
            <Array as="points">
              <mxPoint x="244.5" y="610" />
            </Array>
          </mxGeometry>
        </mxCell>
        <mxCell id="vi7r8pS_lw6DegFknRx_-4" style="edgeStyle=orthogonalEdgeStyle;rounded=0;orthogonalLoop=1;jettySize=auto;html=1;exitX=0.5;exitY=1;exitDx=0;exitDy=0;startArrow=oval;startFill=1;endArrow=none;endFill=0;" edge="1" parent="1" source="1oOB9dHWnE0UJrxzAWDH-105">
          <mxGeometry relative="1" as="geometry">
            <mxPoint x="170" y="640" as="targetPoint" />
            <Array as="points">
              <mxPoint x="290" y="640" />
            </Array>
          </mxGeometry>
        </mxCell>
        <mxCell id="vi7r8pS_lw6DegFknRx_-15" style="edgeStyle=orthogonalEdgeStyle;rounded=0;orthogonalLoop=1;jettySize=auto;html=1;exitX=1;exitY=0.5;exitDx=0;exitDy=0;startArrow=none;startFill=0;endArrow=none;endFill=0;" edge="1" parent="1" source="1oOB9dHWnE0UJrxzAWDH-105">
          <mxGeometry relative="1" as="geometry">
            <mxPoint x="1300" y="820" as="targetPoint" />
          </mxGeometry>
        </mxCell>
        <mxCell id="1oOB9dHWnE0UJrxzAWDH-105" value="" style="triangle;whiteSpace=wrap;html=1;" vertex="1" parent="1">
          <mxGeometry x="274.5" y="590" width="30" height="40" as="geometry" />
        </mxCell>
        <mxCell id="1oOB9dHWnE0UJrxzAWDH-106" style="edgeStyle=orthogonalEdgeStyle;rounded=0;orthogonalLoop=1;jettySize=auto;html=1;endArrow=none;endFill=0;startArrow=oval;startFill=0;entryX=0;entryY=0.5;entryDx=0;entryDy=0;" edge="1" parent="1" target="1oOB9dHWnE0UJrxzAWDH-107">
          <mxGeometry relative="1" as="geometry">
            <mxPoint x="284.5" y="670" as="targetPoint" />
            <mxPoint x="130" y="670" as="sourcePoint" />
            <Array as="points" />
          </mxGeometry>
        </mxCell>
        <mxCell id="vi7r8pS_lw6DegFknRx_-6" style="edgeStyle=orthogonalEdgeStyle;rounded=0;orthogonalLoop=1;jettySize=auto;html=1;exitX=0.5;exitY=1;exitDx=0;exitDy=0;startArrow=none;startFill=0;endArrow=none;endFill=0;" edge="1" parent="1" source="1oOB9dHWnE0UJrxzAWDH-107">
          <mxGeometry relative="1" as="geometry">
            <mxPoint x="284.5" y="730" as="targetPoint" />
            <Array as="points">
              <mxPoint x="289.5" y="730" />
            </Array>
          </mxGeometry>
        </mxCell>
        <mxCell id="1oOB9dHWnE0UJrxzAWDH-107" value="" style="triangle;whiteSpace=wrap;html=1;" vertex="1" parent="1">
          <mxGeometry x="274.5" y="650" width="30" height="40" as="geometry" />
        </mxCell>
        <mxCell id="1oOB9dHWnE0UJrxzAWDH-113" value="" style="endArrow=oval;html=1;endFill=1;" edge="1" parent="1">
          <mxGeometry width="50" height="50" relative="1" as="geometry">
            <mxPoint x="260" y="750" as="sourcePoint" />
            <mxPoint x="260" y="670" as="targetPoint" />
          </mxGeometry>
        </mxCell>
        <mxCell id="vi7r8pS_lw6DegFknRx_-2" value="" style="endArrow=none;html=1;" edge="1" parent="1">
          <mxGeometry width="50" height="50" relative="1" as="geometry">
            <mxPoint x="170" y="520" as="sourcePoint" />
            <mxPoint x="254.5" y="520" as="targetPoint" />
          </mxGeometry>
        </mxCell>
        <mxCell id="vi7r8pS_lw6DegFknRx_-5" value="" style="endArrow=none;html=1;" edge="1" parent="1">
          <mxGeometry width="50" height="50" relative="1" as="geometry">
            <mxPoint x="170" y="520" as="sourcePoint" />
            <mxPoint x="170" y="800" as="targetPoint" />
          </mxGeometry>
        </mxCell>
        <mxCell id="vi7r8pS_lw6DegFknRx_-7" value="" style="endArrow=none;html=1;startArrow=oval;startFill=1;" edge="1" parent="1">
          <mxGeometry width="50" height="50" relative="1" as="geometry">
            <mxPoint x="170" y="730" as="sourcePoint" />
            <mxPoint x="290" y="730" as="targetPoint" />
          </mxGeometry>
        </mxCell>
        <mxCell id="vi7r8pS_lw6DegFknRx_-11" style="edgeStyle=orthogonalEdgeStyle;rounded=0;orthogonalLoop=1;jettySize=auto;html=1;startArrow=none;startFill=0;endArrow=none;endFill=0;" edge="1" parent="1" source="vi7r8pS_lw6DegFknRx_-8">
          <mxGeometry relative="1" as="geometry">
            <mxPoint x="170" y="800" as="targetPoint" />
            <mxPoint x="70" y="835" as="sourcePoint" />
          </mxGeometry>
        </mxCell>
        <mxCell id="vi7r8pS_lw6DegFknRx_-9" value="Text" style="text;html=1;align=center;verticalAlign=middle;resizable=0;points=[];autosize=1;strokeColor=none;" vertex="1" parent="1">
          <mxGeometry x="710" y="-390" width="40" height="20" as="geometry" />
        </mxCell>
        <mxCell id="vi7r8pS_lw6DegFknRx_-10" value="Text" style="text;html=1;align=center;verticalAlign=middle;resizable=0;points=[];autosize=1;strokeColor=none;" vertex="1" parent="1">
          <mxGeometry x="-370" y="750" width="40" height="20" as="geometry" />
        </mxCell>
        <mxCell id="vi7r8pS_lw6DegFknRx_-24" value="" style="endArrow=none;html=1;" edge="1" parent="1" target="vi7r8pS_lw6DegFknRx_-26">
          <mxGeometry width="50" height="50" relative="1" as="geometry">
            <mxPoint x="260" y="750" as="sourcePoint" />
            <mxPoint x="1150" y="750" as="targetPoint" />
          </mxGeometry>
        </mxCell>
        <mxCell id="vi7r8pS_lw6DegFknRx_-25" value="" style="endArrow=none;html=1;" edge="1" parent="1">
          <mxGeometry width="50" height="50" relative="1" as="geometry">
            <mxPoint x="1180" y="814.58" as="sourcePoint" />
            <mxPoint x="1300" y="815" as="targetPoint" />
          </mxGeometry>
        </mxCell>
        <mxCell id="vi7r8pS_lw6DegFknRx_-28" value="" style="edgeStyle=orthogonalEdgeStyle;rounded=0;orthogonalLoop=1;jettySize=auto;html=1;startArrow=none;startFill=0;endArrow=none;endFill=0;" edge="1" parent="1" source="vi7r8pS_lw6DegFknRx_-26">
          <mxGeometry relative="1" as="geometry">
            <mxPoint x="1260" y="755" as="targetPoint" />
          </mxGeometry>
        </mxCell>
        <mxCell id="vi7r8pS_lw6DegFknRx_-74" style="edgeStyle=orthogonalEdgeStyle;rounded=0;orthogonalLoop=1;jettySize=auto;html=1;exitX=0.5;exitY=0;exitDx=0;exitDy=0;startArrow=none;startFill=0;endArrow=oval;endFill=1;" edge="1" parent="1" source="vi7r8pS_lw6DegFknRx_-26">
          <mxGeometry relative="1" as="geometry">
            <mxPoint x="1135" y="990" as="targetPoint" />
          </mxGeometry>
        </mxCell>
        <mxCell id="vi7r8pS_lw6DegFknRx_-26" value="" style="triangle;whiteSpace=wrap;html=1;direction=west;" vertex="1" parent="1">
          <mxGeometry x="1120" y="740" width="30" height="30" as="geometry" />
        </mxCell>
        <mxCell id="vi7r8pS_lw6DegFknRx_-30" value="" style="edgeStyle=orthogonalEdgeStyle;rounded=0;orthogonalLoop=1;jettySize=auto;html=1;startArrow=none;startFill=0;endArrow=none;endFill=0;entryX=1;entryY=0.5;entryDx=0;entryDy=0;" edge="1" parent="1" target="1oOB9dHWnE0UJrxzAWDH-107">
          <mxGeometry relative="1" as="geometry">
            <mxPoint x="1260" y="755" as="sourcePoint" />
            <mxPoint x="870" y="670" as="targetPoint" />
            <Array as="points">
              <mxPoint x="1260" y="670" />
            </Array>
          </mxGeometry>
        </mxCell>
        <mxCell id="vi7r8pS_lw6DegFknRx_-39" style="edgeStyle=orthogonalEdgeStyle;rounded=0;orthogonalLoop=1;jettySize=auto;html=1;exitX=1;exitY=0.5;exitDx=0;exitDy=0;startArrow=none;startFill=0;endArrow=oval;endFill=1;" edge="1" parent="1" source="vi7r8pS_lw6DegFknRx_-33">
          <mxGeometry relative="1" as="geometry">
            <mxPoint x="250" y="610" as="targetPoint" />
          </mxGeometry>
        </mxCell>
        <mxCell id="vi7r8pS_lw6DegFknRx_-73" style="edgeStyle=orthogonalEdgeStyle;rounded=0;orthogonalLoop=1;jettySize=auto;html=1;exitX=0.5;exitY=0;exitDx=0;exitDy=0;startArrow=none;startFill=0;endArrow=oval;endFill=1;" edge="1" parent="1" source="vi7r8pS_lw6DegFknRx_-33">
          <mxGeometry relative="1" as="geometry">
            <mxPoint x="1165" y="990" as="targetPoint" />
            <Array as="points">
              <mxPoint x="1165" y="950" />
            </Array>
          </mxGeometry>
        </mxCell>
        <mxCell id="vi7r8pS_lw6DegFknRx_-33" value="" style="triangle;whiteSpace=wrap;html=1;direction=west;" vertex="1" parent="1">
          <mxGeometry x="1150" y="800" width="30" height="30" as="geometry" />
        </mxCell>
        <mxCell id="vi7r8pS_lw6DegFknRx_-36" style="edgeStyle=orthogonalEdgeStyle;rounded=0;orthogonalLoop=1;jettySize=auto;html=1;exitX=0;exitY=0.5;exitDx=0;exitDy=0;startArrow=none;startFill=0;endArrow=none;endFill=0;" edge="1" parent="1" source="vi7r8pS_lw6DegFknRx_-34">
          <mxGeometry relative="1" as="geometry">
            <mxPoint x="1330" y="864.8333333333335" as="targetPoint" />
          </mxGeometry>
        </mxCell>
        <mxCell id="vi7r8pS_lw6DegFknRx_-40" style="edgeStyle=orthogonalEdgeStyle;rounded=0;orthogonalLoop=1;jettySize=auto;html=1;exitX=1;exitY=0.5;exitDx=0;exitDy=0;startArrow=none;startFill=0;endArrow=oval;endFill=1;" edge="1" parent="1" source="vi7r8pS_lw6DegFknRx_-34">
          <mxGeometry relative="1" as="geometry">
            <mxPoint x="230" y="550" as="targetPoint" />
          </mxGeometry>
        </mxCell>
        <mxCell id="vi7r8pS_lw6DegFknRx_-72" style="edgeStyle=orthogonalEdgeStyle;rounded=0;orthogonalLoop=1;jettySize=auto;html=1;exitX=0.5;exitY=0;exitDx=0;exitDy=0;startArrow=none;startFill=0;endArrow=oval;endFill=1;" edge="1" parent="1" source="vi7r8pS_lw6DegFknRx_-34">
          <mxGeometry relative="1" as="geometry">
            <mxPoint x="1195" y="990" as="targetPoint" />
          </mxGeometry>
        </mxCell>
        <mxCell id="vi7r8pS_lw6DegFknRx_-34" value="" style="triangle;whiteSpace=wrap;html=1;direction=west;" vertex="1" parent="1">
          <mxGeometry x="1180" y="850" width="30" height="30" as="geometry" />
        </mxCell>
        <mxCell id="vi7r8pS_lw6DegFknRx_-37" style="edgeStyle=orthogonalEdgeStyle;rounded=0;orthogonalLoop=1;jettySize=auto;html=1;exitX=0;exitY=0.5;exitDx=0;exitDy=0;startArrow=none;startFill=0;endArrow=none;endFill=0;" edge="1" parent="1" source="vi7r8pS_lw6DegFknRx_-35">
          <mxGeometry relative="1" as="geometry">
            <mxPoint x="1360" y="935" as="targetPoint" />
          </mxGeometry>
        </mxCell>
        <mxCell id="vi7r8pS_lw6DegFknRx_-41" style="edgeStyle=orthogonalEdgeStyle;rounded=0;orthogonalLoop=1;jettySize=auto;html=1;exitX=1;exitY=0.5;exitDx=0;exitDy=0;startArrow=none;startFill=0;endArrow=oval;endFill=1;" edge="1" parent="1" source="vi7r8pS_lw6DegFknRx_-35">
          <mxGeometry relative="1" as="geometry">
            <mxPoint x="215.99995930989607" y="490" as="targetPoint" />
          </mxGeometry>
        </mxCell>
        <mxCell id="vi7r8pS_lw6DegFknRx_-75" style="edgeStyle=orthogonalEdgeStyle;rounded=0;orthogonalLoop=1;jettySize=auto;html=1;exitX=0.5;exitY=0;exitDx=0;exitDy=0;startArrow=none;startFill=0;endArrow=none;endFill=0;" edge="1" parent="1" source="vi7r8pS_lw6DegFknRx_-35">
          <mxGeometry relative="1" as="geometry">
            <mxPoint x="1225" y="990" as="targetPoint" />
          </mxGeometry>
        </mxCell>
        <mxCell id="vi7r8pS_lw6DegFknRx_-35" value="" style="triangle;whiteSpace=wrap;html=1;direction=west;" vertex="1" parent="1">
          <mxGeometry x="1210" y="920" width="30" height="30" as="geometry" />
        </mxCell>
        <mxCell id="vi7r8pS_lw6DegFknRx_-44" style="edgeStyle=orthogonalEdgeStyle;rounded=0;orthogonalLoop=1;jettySize=auto;html=1;exitX=0;exitY=0.25;exitDx=0;exitDy=0;exitPerimeter=0;startArrow=oval;startFill=0;endArrow=oval;endFill=1;" edge="1" parent="1" source="vi7r8pS_lw6DegFknRx_-8">
          <mxGeometry relative="1" as="geometry">
            <mxPoint x="60.00000000000023" y="822.3333333333335" as="targetPoint" />
          </mxGeometry>
        </mxCell>
        <mxCell id="vi7r8pS_lw6DegFknRx_-45" style="edgeStyle=orthogonalEdgeStyle;rounded=0;orthogonalLoop=1;jettySize=auto;html=1;exitX=0;exitY=0.75;exitDx=0;exitDy=0;exitPerimeter=0;startArrow=oval;startFill=0;endArrow=oval;endFill=0;" edge="1" parent="1" source="vi7r8pS_lw6DegFknRx_-8">
          <mxGeometry relative="1" as="geometry">
            <mxPoint x="30.000000000000227" y="847.3333333333335" as="targetPoint" />
          </mxGeometry>
        </mxCell>
        <mxCell id="vi7r8pS_lw6DegFknRx_-8" value="" style="shape=or;whiteSpace=wrap;html=1;" vertex="1" parent="1">
          <mxGeometry x="90" y="810" width="40" height="50" as="geometry" />
        </mxCell>
        <mxCell id="vi7r8pS_lw6DegFknRx_-46" style="edgeStyle=orthogonalEdgeStyle;rounded=0;orthogonalLoop=1;jettySize=auto;html=1;exitX=0;exitY=0.25;exitDx=0;exitDy=0;exitPerimeter=0;startArrow=oval;startFill=0;endArrow=none;endFill=0;" edge="1" parent="1" source="vi7r8pS_lw6DegFknRx_-48">
          <mxGeometry relative="1" as="geometry">
            <mxPoint x="60" y="890" as="targetPoint" />
          </mxGeometry>
        </mxCell>
        <mxCell id="vi7r8pS_lw6DegFknRx_-47" style="edgeStyle=orthogonalEdgeStyle;rounded=0;orthogonalLoop=1;jettySize=auto;html=1;exitX=0;exitY=0.75;exitDx=0;exitDy=0;exitPerimeter=0;startArrow=oval;startFill=0;endArrow=oval;endFill=0;" edge="1" parent="1" source="vi7r8pS_lw6DegFknRx_-48">
          <mxGeometry relative="1" as="geometry">
            <mxPoint x="30.000000000000227" y="927.3333333333335" as="targetPoint" />
          </mxGeometry>
        </mxCell>
        <mxCell id="vi7r8pS_lw6DegFknRx_-71" style="edgeStyle=orthogonalEdgeStyle;rounded=0;orthogonalLoop=1;jettySize=auto;html=1;exitX=1;exitY=0.5;exitDx=0;exitDy=0;exitPerimeter=0;startArrow=none;startFill=0;endArrow=none;endFill=0;" edge="1" parent="1" source="vi7r8pS_lw6DegFknRx_-48">
          <mxGeometry relative="1" as="geometry">
            <mxPoint x="1230" y="990" as="targetPoint" />
            <Array as="points">
              <mxPoint x="696" y="915" />
              <mxPoint x="696" y="990" />
            </Array>
          </mxGeometry>
        </mxCell>
        <mxCell id="vi7r8pS_lw6DegFknRx_-48" value="" style="shape=or;whiteSpace=wrap;html=1;" vertex="1" parent="1">
          <mxGeometry x="90" y="890" width="40" height="50" as="geometry" />
        </mxCell>
        <mxCell id="vi7r8pS_lw6DegFknRx_-49" value="" style="endArrow=none;html=1;" edge="1" parent="1">
          <mxGeometry width="50" height="50" relative="1" as="geometry">
            <mxPoint x="60" y="900" as="sourcePoint" />
            <mxPoint x="60" y="780" as="targetPoint" />
          </mxGeometry>
        </mxCell>
        <mxCell id="vi7r8pS_lw6DegFknRx_-50" value="" style="endArrow=none;html=1;endFill=0;startArrow=oval;startFill=0;" edge="1" parent="1">
          <mxGeometry width="50" height="50" relative="1" as="geometry">
            <mxPoint x="20" y="780" as="sourcePoint" />
            <mxPoint x="60" y="780" as="targetPoint" />
          </mxGeometry>
        </mxCell>
        <mxCell id="vi7r8pS_lw6DegFknRx_-52" value="CS" style="text;html=1;align=center;verticalAlign=middle;resizable=0;points=[];autosize=1;strokeColor=none;" vertex="1" parent="1">
          <mxGeometry x="10" y="750" width="30" height="20" as="geometry" />
        </mxCell>
        <mxCell id="vi7r8pS_lw6DegFknRx_-53" value="WE" style="text;html=1;align=center;verticalAlign=middle;resizable=0;points=[];autosize=1;strokeColor=none;" vertex="1" parent="1">
          <mxGeometry y="825" width="30" height="20" as="geometry" />
        </mxCell>
        <mxCell id="vi7r8pS_lw6DegFknRx_-54" value="RD" style="text;html=1;align=center;verticalAlign=middle;resizable=0;points=[];autosize=1;strokeColor=none;" vertex="1" parent="1">
          <mxGeometry x="5" y="900" width="30" height="20" as="geometry" />
        </mxCell>
        <mxCell id="vi7r8pS_lw6DegFknRx_-55" value="" style="endArrow=none;html=1;entryX=0.267;entryY=-0.008;entryDx=0;entryDy=0;entryPerimeter=0;" edge="1" parent="1" target="vi7r8pS_lw6DegFknRx_-52">
          <mxGeometry width="50" height="50" relative="1" as="geometry">
            <mxPoint x="30" y="750" as="sourcePoint" />
            <mxPoint x="330" y="700" as="targetPoint" />
          </mxGeometry>
        </mxCell>
        <mxCell id="vi7r8pS_lw6DegFknRx_-57" value="" style="endArrow=none;html=1;entryX=0.867;entryY=-0.192;entryDx=0;entryDy=0;entryPerimeter=0;exitX=0.333;exitY=-0.192;exitDx=0;exitDy=0;exitPerimeter=0;" edge="1" parent="1" source="vi7r8pS_lw6DegFknRx_-53" target="vi7r8pS_lw6DegFknRx_-53">
          <mxGeometry width="50" height="50" relative="1" as="geometry">
            <mxPoint x="15" y="821" as="sourcePoint" />
            <mxPoint x="38.00999999999976" y="769.8400000000001" as="targetPoint" />
          </mxGeometry>
        </mxCell>
        <mxCell id="vi7r8pS_lw6DegFknRx_-58" value="" style="endArrow=none;html=1;entryX=0.389;entryY=-0.075;entryDx=0;entryDy=0;entryPerimeter=0;exitX=0.722;exitY=-0.075;exitDx=0;exitDy=0;exitPerimeter=0;" edge="1" parent="1" source="vi7r8pS_lw6DegFknRx_-54" target="vi7r8pS_lw6DegFknRx_-54">
          <mxGeometry width="50" height="50" relative="1" as="geometry">
            <mxPoint x="17" y="899" as="sourcePoint" />
            <mxPoint x="48.00999999999976" y="779.8400000000001" as="targetPoint" />
          </mxGeometry>
        </mxCell>
        <mxCell id="vi7r8pS_lw6DegFknRx_-59" value="D0" style="text;html=1;align=center;verticalAlign=middle;resizable=0;points=[];autosize=1;strokeColor=none;" vertex="1" parent="1">
          <mxGeometry x="115" y="460" width="30" height="20" as="geometry" />
        </mxCell>
        <mxCell id="vi7r8pS_lw6DegFknRx_-60" value="D1" style="text;html=1;align=center;verticalAlign=middle;resizable=0;points=[];autosize=1;strokeColor=none;" vertex="1" parent="1">
          <mxGeometry x="115" y="520" width="30" height="20" as="geometry" />
        </mxCell>
        <mxCell id="vi7r8pS_lw6DegFknRx_-61" value="D2" style="text;html=1;align=center;verticalAlign=middle;resizable=0;points=[];autosize=1;strokeColor=none;" vertex="1" parent="1">
          <mxGeometry x="115" y="590" width="30" height="20" as="geometry" />
        </mxCell>
        <mxCell id="vi7r8pS_lw6DegFknRx_-62" value="D3" style="text;html=1;align=center;verticalAlign=middle;resizable=0;points=[];autosize=1;strokeColor=none;" vertex="1" parent="1">
          <mxGeometry x="115" y="650" width="30" height="20" as="geometry" />
        </mxCell>
        <mxCell id="vi7r8pS_lw6DegFknRx_-63" value="A3" style="text;html=1;align=center;verticalAlign=middle;resizable=0;points=[];autosize=1;strokeColor=none;" vertex="1" parent="1">
          <mxGeometry x="115" y="50" width="30" height="20" as="geometry" />
        </mxCell>
        <mxCell id="vi7r8pS_lw6DegFknRx_-64" value="A4" style="text;html=1;align=center;verticalAlign=middle;resizable=0;points=[];autosize=1;strokeColor=none;" vertex="1" parent="1">
          <mxGeometry x="115" y="110" width="30" height="20" as="geometry" />
        </mxCell>
        <mxCell id="vi7r8pS_lw6DegFknRx_-65" value="A5" style="text;html=1;align=center;verticalAlign=middle;resizable=0;points=[];autosize=1;strokeColor=none;" vertex="1" parent="1">
          <mxGeometry x="115" y="170" width="30" height="20" as="geometry" />
        </mxCell>
        <mxCell id="vi7r8pS_lw6DegFknRx_-66" value="A6" style="text;html=1;align=center;verticalAlign=middle;resizable=0;points=[];autosize=1;strokeColor=none;" vertex="1" parent="1">
          <mxGeometry x="115" y="230" width="30" height="20" as="geometry" />
        </mxCell>
        <mxCell id="vi7r8pS_lw6DegFknRx_-67" value="A7" style="text;html=1;align=center;verticalAlign=middle;resizable=0;points=[];autosize=1;strokeColor=none;" vertex="1" parent="1">
          <mxGeometry x="115" y="290" width="30" height="20" as="geometry" />
        </mxCell>
        <mxCell id="vi7r8pS_lw6DegFknRx_-68" value="A0" style="text;html=1;align=center;verticalAlign=middle;resizable=0;points=[];autosize=1;strokeColor=none;" vertex="1" parent="1">
          <mxGeometry x="1305" y="330" width="30" height="20" as="geometry" />
        </mxCell>
        <mxCell id="vi7r8pS_lw6DegFknRx_-69" value="A1" style="text;html=1;align=center;verticalAlign=middle;resizable=0;points=[];autosize=1;strokeColor=none;" vertex="1" parent="1">
          <mxGeometry x="1315" y="370" width="30" height="20" as="geometry" />
        </mxCell>
        <mxCell id="vi7r8pS_lw6DegFknRx_-70" value="A2" style="text;html=1;align=center;verticalAlign=middle;resizable=0;points=[];autosize=1;strokeColor=none;" vertex="1" parent="1">
          <mxGeometry x="1324.5" y="420" width="30" height="20" as="geometry" />
        </mxCell>
        <mxCell id="vi7r8pS_lw6DegFknRx_-77" value="(8)" style="text;html=1;align=center;verticalAlign=middle;resizable=0;points=[];autosize=1;strokeColor=none;" vertex="1" parent="1">
          <mxGeometry x="680" y="330" width="30" height="20" as="geometry" />
        </mxCell>
        <mxCell id="vi7r8pS_lw6DegFknRx_-78" value="(8)" style="text;html=1;align=center;verticalAlign=middle;resizable=0;points=[];autosize=1;strokeColor=none;" vertex="1" parent="1">
          <mxGeometry x="830" y="330" width="30" height="20" as="geometry" />
        </mxCell>
        <mxCell id="vi7r8pS_lw6DegFknRx_-79" value="(8)" style="text;html=1;align=center;verticalAlign=middle;resizable=0;points=[];autosize=1;strokeColor=none;" vertex="1" parent="1">
          <mxGeometry x="984.5" y="330" width="30" height="20" as="geometry" />
        </mxCell>
        <mxCell id="vi7r8pS_lw6DegFknRx_-80" value="(8)" style="text;html=1;align=center;verticalAlign=middle;resizable=0;points=[];autosize=1;strokeColor=none;" vertex="1" parent="1">
          <mxGeometry x="1140" y="330" width="30" height="20" as="geometry" />
        </mxCell>
      </root>
    </mxGraphModel>
  </diagram>
  <diagram id="4_6urJBVbGBVrtrDvY_U" name="Page-2">
    <mxGraphModel dx="1038" dy="548" grid="1" gridSize="10" guides="1" tooltips="1" connect="1" arrows="1" fold="1" page="1" pageScale="1" pageWidth="827" pageHeight="1169" math="0" shadow="0">
      <root>
        <mxCell id="IaP3xns6uDINfrob_3Mt-0" />
        <mxCell id="IaP3xns6uDINfrob_3Mt-1" parent="IaP3xns6uDINfrob_3Mt-0" />
      </root>
    </mxGraphModel>
  </diagram>
</mxfile>
